<svg width="1067" height="1062" viewBox="0 0 1067 1062" fill="none" xmlns="http://www.w3.org/2000/svg">
<g clip-path="url(#clip0_6_74)">
<path d="M610.114 1050.8L611.536 1051.1C643.619 976.051 677.098 880.7 700.65 767.61C723.939 655.778 731.374 556.032 732.091 475.021C654.818 443.816 559.388 411.978 447.941 388.769C337.725 365.818 238.543 356.816 155.893 354.44L154.471 354.142C122.41 429.221 88.909 524.539 65.3568 637.629C42.0676 749.462 34.6331 849.208 33.9156 930.219C111.183 961.451 206.619 993.262 318.066 1016.47C428.282 1039.42 527.464 1048.42 610.114 1050.8ZM89.8896 893.721C90.4866 825.693 96.7386 741.961 116.303 648.063C136.085 553.126 164.198 473.055 191.113 410.022L192.316 410.274C261.725 412.247 344.976 419.798 437.521 439.108C531.111 458.608 611.212 485.298 676.112 511.546C675.515 579.574 669.263 663.306 649.698 757.204C629.916 852.141 601.804 932.212 574.888 995.245L573.685 994.993C504.276 993.02 421.026 985.469 328.48 966.159C234.89 946.659 154.789 919.969 89.8896 893.721Z" fill="url(#paint0_linear_6_74)"/>
<path d="M525.755 951.329L526.728 951.59C551.752 901.14 578.57 836.803 599.211 759.847C619.648 683.733 628.684 615.332 632.36 559.588C580.372 535.044 515.889 509.397 440.053 489.048C365.032 468.898 297.091 458.816 240.273 453.944L239.301 453.683C214.277 504.132 187.459 568.47 166.817 645.425C146.381 721.539 137.345 789.941 133.669 845.685C185.657 870.229 250.14 895.876 325.976 916.225C400.997 936.375 468.937 946.456 525.755 951.329ZM173.655 822.729C176.748 775.906 184.345 718.472 201.48 654.591C218.824 589.982 241.316 535.951 262.336 493.593L263.144 493.819C310.855 497.898 367.915 506.387 430.893 523.275C494.57 540.367 548.699 561.907 592.352 582.511C589.259 629.333 581.663 686.767 564.528 750.649C547.183 815.258 524.691 869.289 503.671 911.647L502.863 911.421C455.152 907.342 398.092 898.852 335.114 881.964C271.437 864.873 217.308 843.333 173.655 822.729Z" fill="url(#paint1_linear_6_74)"/>
</g>
<g clip-path="url(#clip1_6_74)">
<path d="M832.801 341.099L833.588 340.721C821.454 293.185 802.56 235.451 772.445 172.884C742.663 111.013 709.737 60.7061 680.457 21.7937C632.179 35.1615 575.008 54.8668 513.351 84.5457C452.374 113.898 401.763 145.87 361.462 174.958L360.675 175.335C372.832 222.879 391.703 280.605 421.819 343.172C451.6 405.043 484.527 455.35 513.807 494.263C562.091 480.91 619.256 461.189 680.913 431.511C741.889 402.159 792.5 370.187 832.801 341.099ZM527.166 456.382C502.576 423.708 474.941 381.473 449.94 329.521C424.663 276.993 408.797 228.512 398.59 188.597L399.256 188.277C433.092 163.839 475.572 137 526.786 112.372C578.568 87.4537 626.544 70.8978 667.105 59.6894C691.695 92.3634 719.33 134.598 744.33 186.551C769.607 239.078 785.473 287.559 795.681 327.474L795.015 327.794C761.178 352.233 718.699 379.071 667.485 403.699C615.703 428.618 567.727 445.174 527.166 456.382Z" fill="url(#paint2_linear_6_74)"/>
<path d="M756.181 324.488L756.741 324.257C750.232 291.038 739.501 250.536 721.21 206.273C703.128 162.486 682.427 126.548 663.798 98.6088C630.02 105.909 589.877 117.252 546.255 135.273C503.094 153.092 466.994 173.125 438.104 191.577L437.545 191.808C444.053 225.027 454.784 265.529 473.076 309.792C491.158 353.579 511.858 389.517 530.488 417.456C564.266 410.156 604.409 398.813 648.031 380.792C691.191 362.973 727.292 342.94 756.181 324.488ZM541.171 391.883C525.526 368.413 508.149 338.234 492.965 301.49C477.615 264.323 468.589 230.321 463.128 202.426L463.597 202.238C487.851 186.738 518.178 169.924 554.4 154.953C591.03 139.823 624.731 130.307 653.092 124.174C668.738 147.644 686.115 177.824 701.299 214.567C716.649 251.734 725.675 285.737 731.135 313.631L730.666 313.819C706.412 329.319 676.085 346.133 639.863 361.105C603.233 376.235 569.532 385.75 541.171 391.883Z" fill="url(#paint3_linear_6_74)"/>
</g>
<g clip-path="url(#clip2_6_74)">
<path d="M1220.73 808.409L1221.91 808.409C1234.89 743.618 1245.6 662.506 1245.51 568.981C1245.42 476.497 1234.77 396.221 1221.91 331.905C1155.5 319.991 1074.59 310.586 982.429 310.677C891.282 310.767 811.192 320.081 745.302 331.905L744.126 331.905C731.169 396.718 720.429 477.808 720.519 571.333C720.61 663.817 731.26 744.093 744.126 808.409C810.536 820.346 891.44 829.728 983.604 829.637C1074.75 829.547 1154.84 820.233 1220.73 808.409ZM782.43 770.204C771.621 716.197 762.69 648.806 762.622 571.152C762.554 492.638 771.554 424.524 782.43 370.11L783.425 370.11C838.755 360.163 905.979 352.341 982.519 352.296C1059.92 352.228 1127.82 360.095 1183.6 370.133C1194.41 424.14 1203.34 491.531 1203.41 569.185C1203.48 647.698 1194.48 715.812 1183.6 770.227L1182.61 770.227C1127.28 780.174 1060.05 787.996 983.514 788.041C906.115 788.109 838.212 780.241 782.43 770.204Z" fill="url(#paint4_linear_6_74)"/>
<path d="M1137.39 743.574L1138.2 743.619C1149.66 699.491 1160.25 644.059 1163.84 579.652C1167.41 515.946 1163.23 460.243 1156.9 415.46C1111.63 404.631 1056.28 395 992.807 391.451C930.015 387.925 874.503 391.202 828.67 396.764L827.856 396.719C816.392 440.847 805.81 496.279 802.214 560.685C798.642 624.391 802.825 680.094 809.156 724.878C854.424 735.707 909.777 745.337 973.248 748.886C1036.04 752.413 1091.55 749.135 1137.39 743.574ZM837.036 700.056C831.722 662.438 828.218 615.665 831.202 562.2C834.232 508.125 843.096 461.577 852.729 424.525L853.407 424.57C891.892 419.89 938.517 417.155 991.224 420.094C1044.52 423.078 1090.99 431.171 1129 440.259C1134.31 477.877 1137.81 524.65 1134.83 578.115C1131.8 632.19 1122.94 678.738 1113.3 715.79L1112.63 715.745C1074.14 720.424 1027.52 723.16 974.808 720.221C921.513 717.237 875.046 709.144 837.036 700.056Z" fill="url(#paint5_linear_6_74)"/>
</g>
<defs>
<linearGradient id="paint0_linear_6_74" x1="256.348" y1="561.747" x2="704.492" y2="1060.42" gradientUnits="userSpaceOnUse">
<stop stop-color="#939598"/>
<stop offset="1" stop-color="#BCBEC0"/>
</linearGradient>
<linearGradient id="paint1_linear_6_74" x1="301.305" y1="600.641" x2="590.401" y2="961.666" gradientUnits="userSpaceOnUse">
<stop stop-color="#939598"/>
<stop offset="1" stop-color="#BCBEC0"/>
</linearGradient>
<linearGradient id="paint2_linear_6_74" x1="485.193" y1="237.131" x2="881.346" y2="311.178" gradientUnits="userSpaceOnUse">
<stop stop-color="#939598"/>
<stop offset="1" stop-color="#BCBEC0"/>
</linearGradient>
<linearGradient id="paint3_linear_6_74" x1="520.864" y1="239.248" x2="790.803" y2="305.782" gradientUnits="userSpaceOnUse">
<stop stop-color="#939598"/>
<stop offset="1" stop-color="#BCBEC0"/>
</linearGradient>
<linearGradient id="paint4_linear_6_74" x1="859.286" y1="479.527" x2="1297.12" y2="800.382" gradientUnits="userSpaceOnUse">
<stop stop-color="#939598"/>
<stop offset="1" stop-color="#BCBEC0"/>
</linearGradient>
<linearGradient id="paint5_linear_6_74" x1="901.362" y1="502.893" x2="1190.33" y2="741.045" gradientUnits="userSpaceOnUse">
<stop stop-color="#939598"/>
<stop offset="1" stop-color="#BCBEC0"/>
</linearGradient>
<clipPath id="clip0_6_74">
<rect width="641.023" height="648.448" fill="white" transform="translate(766.001 455.33) rotate(101.82)"/>
</clipPath>
<clipPath id="clip1_6_74">
<rect width="385.323" height="389.786" fill="white" transform="translate(689.435) rotate(64.3522)"/>
</clipPath>
<clipPath id="clip2_6_74">
<rect width="518.983" height="524.994" fill="white" transform="translate(1245.51 310.677) rotate(90)"/>
</clipPath>
</defs>
</svg>
