<svg width="860" height="746" viewBox="0 0 860 746" fill="none" xmlns="http://www.w3.org/2000/svg">
<g clip-path="url(#clip0_13_116)">
<path d="M224.114 1050.8L225.536 1051.1C257.619 976.051 291.098 880.7 314.65 767.61C337.94 655.778 345.374 556.032 346.092 475.021C268.819 443.816 173.388 411.978 61.9415 388.769C-48.2748 365.818 -147.457 356.816 -230.107 354.44L-231.528 354.142C-263.59 429.221 -297.091 524.539 -320.643 637.629C-343.932 749.462 -351.367 849.208 -352.084 930.219C-274.817 961.451 -179.38 993.262 -67.934 1016.47C42.2822 1039.42 141.465 1048.42 224.114 1050.8ZM-296.11 893.721C-295.513 825.693 -289.261 741.961 -269.697 648.063C-249.915 553.126 -221.802 473.055 -194.886 410.022L-193.684 410.274C-124.275 412.247 -41.0242 419.798 51.5212 439.108C145.111 458.608 225.212 485.298 290.112 511.546C289.515 579.574 283.263 663.306 263.698 757.204C243.917 852.141 215.804 932.212 188.888 995.245L187.685 994.993C118.276 993.02 35.026 985.469 -57.5195 966.159C-151.109 946.659 -231.211 919.969 -296.11 893.721Z" fill="url(#paint0_linear_13_116)"/>
<path d="M139.756 951.329L140.728 951.59C165.752 901.14 192.57 836.803 213.211 759.847C233.648 683.733 242.684 615.332 246.36 559.588C194.372 535.044 129.889 509.397 54.0531 489.048C-20.9681 468.898 -88.9085 458.816 -145.727 453.944L-146.699 453.683C-171.723 504.132 -198.541 568.47 -219.182 645.425C-239.619 721.539 -248.655 789.941 -252.331 845.685C-200.343 870.229 -135.86 895.876 -60.0241 916.225C14.9971 936.375 82.9375 946.456 139.756 951.329ZM-212.345 822.729C-209.252 775.906 -201.655 718.472 -184.52 654.591C-167.176 589.982 -144.684 535.951 -123.664 493.593L-122.855 493.819C-75.1448 497.898 -18.0849 506.387 44.893 523.275C108.57 540.367 162.699 561.907 206.352 582.511C203.259 629.333 195.663 686.767 178.528 750.649C161.183 815.258 138.691 869.289 117.671 911.647L116.863 911.421C69.1522 907.342 12.0923 898.852 -50.8855 881.964C-114.563 864.873 -168.692 843.333 -212.345 822.729Z" fill="url(#paint1_linear_13_116)"/>
</g>
<g clip-path="url(#clip1_13_116)">
<path d="M446.801 341.099L447.588 340.721C435.454 293.185 416.56 235.451 386.444 172.884C356.663 111.013 323.737 60.7061 294.457 21.7937C246.179 35.1615 189.008 54.8668 127.35 84.5457C66.3744 113.898 15.7629 145.87 -24.538 174.958L-25.325 175.336C-13.168 222.879 5.70287 280.605 35.8187 343.172C65.6003 405.043 98.5264 455.35 127.807 494.263C176.091 480.91 233.256 461.189 294.913 431.511C355.889 402.159 406.5 370.187 446.801 341.099ZM141.166 456.382C116.576 423.708 88.9407 381.473 63.9401 329.521C38.6634 276.993 22.7973 228.512 12.5899 188.597L13.2558 188.277C47.0921 163.839 89.5718 137 140.786 112.372C192.568 87.4537 240.543 70.8978 281.105 59.6894C305.695 92.3634 333.33 134.598 358.33 186.551C383.607 239.078 399.473 287.559 409.681 327.474L409.015 327.794C375.178 352.233 332.699 379.071 281.485 403.699C229.703 428.618 181.727 445.174 141.166 456.382Z" fill="url(#paint2_linear_13_116)"/>
<path d="M370.181 324.488L370.74 324.257C364.232 291.038 353.501 250.536 335.209 206.273C317.128 162.486 296.427 126.548 277.798 98.6088C244.019 105.909 203.876 117.252 160.255 135.273C117.094 153.092 80.9937 173.125 52.1042 191.577L51.5449 191.808C58.0532 225.027 68.7843 265.529 87.0759 309.792C105.158 353.579 125.858 389.517 144.488 417.456C178.266 410.156 218.409 398.813 262.031 380.792C305.191 362.973 341.292 342.94 370.181 324.488ZM155.171 391.883C139.526 368.413 122.149 338.234 106.964 301.49C91.6146 264.323 82.5885 230.321 77.1282 202.426L77.5968 202.238C101.851 186.738 132.178 169.924 168.4 154.953C205.03 139.823 238.731 130.307 267.092 124.174C282.737 147.644 300.114 177.824 315.298 214.567C330.648 251.734 339.675 285.737 345.135 313.631L344.666 313.819C320.412 329.319 290.085 346.133 253.863 361.105C217.233 376.235 183.532 385.75 155.171 391.883Z" fill="url(#paint3_linear_13_116)"/>
</g>
<g clip-path="url(#clip2_13_116)">
<path d="M834.732 808.409L835.907 808.409C848.886 743.619 859.604 662.506 859.514 568.981C859.423 476.497 848.773 396.221 835.907 331.905C769.497 319.991 688.593 310.586 596.429 310.677C505.282 310.767 425.192 320.081 359.302 331.905L358.126 331.905C345.169 396.718 334.429 477.808 334.519 571.333C334.61 663.817 345.26 744.093 358.126 808.409C424.536 820.346 505.44 829.728 597.604 829.637C688.752 829.547 768.842 820.233 834.732 808.409ZM396.43 770.204C385.621 716.197 376.69 648.806 376.622 571.152C376.554 492.638 385.554 424.524 396.43 370.11L397.425 370.11C452.755 360.163 519.979 352.341 596.519 352.296C673.918 352.228 741.821 360.095 797.603 370.133C808.412 424.14 817.343 491.531 817.411 569.185C817.479 647.698 808.48 715.812 797.603 770.227L796.609 770.227C741.278 780.174 674.054 787.996 597.514 788.041C520.115 788.109 452.212 780.241 396.43 770.204Z" fill="url(#paint4_linear_13_116)"/>
<path d="M751.385 743.574L752.199 743.619C763.663 699.491 774.245 644.059 777.841 579.652C781.413 515.946 777.23 460.243 770.899 415.46C725.631 404.631 670.278 395 606.807 391.451C544.015 387.924 488.504 391.202 442.67 396.764L441.856 396.719C430.392 440.847 419.81 496.279 416.214 560.685C412.642 624.391 416.825 680.094 423.156 724.878C468.425 735.707 523.778 745.337 587.248 748.886C650.04 752.413 705.552 749.135 751.385 743.574ZM451.036 700.056C445.723 662.438 442.218 615.665 445.202 562.2C448.232 508.125 457.096 461.577 466.729 424.525L467.407 424.57C505.892 419.89 552.517 417.155 605.224 420.094C658.52 423.078 704.986 431.171 742.996 440.259C748.31 477.877 751.815 524.65 748.83 578.115C745.8 632.19 736.936 678.738 727.304 715.79L726.626 715.745C688.141 720.424 641.516 723.16 588.808 720.221C535.513 717.237 489.046 709.144 451.036 700.056Z" fill="url(#paint5_linear_13_116)"/>
</g>
<defs>
<linearGradient id="paint0_linear_13_116" x1="-129.652" y1="561.747" x2="318.492" y2="1060.42" gradientUnits="userSpaceOnUse">
<stop stop-color="white"/>
<stop offset="1" stop-color="#BCBEC0"/>
</linearGradient>
<linearGradient id="paint1_linear_13_116" x1="-84.6949" y1="600.641" x2="204.401" y2="961.666" gradientUnits="userSpaceOnUse">
<stop stop-color="white"/>
<stop offset="1" stop-color="#BCBEC0"/>
</linearGradient>
<linearGradient id="paint2_linear_13_116" x1="99.1929" y1="237.131" x2="495.346" y2="311.178" gradientUnits="userSpaceOnUse">
<stop stop-color="white"/>
<stop offset="1" stop-color="#BCBEC0"/>
</linearGradient>
<linearGradient id="paint3_linear_13_116" x1="134.864" y1="239.248" x2="404.803" y2="305.782" gradientUnits="userSpaceOnUse">
<stop stop-color="white"/>
<stop offset="1" stop-color="#BCBEC0"/>
</linearGradient>
<linearGradient id="paint4_linear_13_116" x1="473.286" y1="479.527" x2="911.116" y2="800.382" gradientUnits="userSpaceOnUse">
<stop stop-color="white"/>
<stop offset="1" stop-color="#BCBEC0"/>
</linearGradient>
<linearGradient id="paint5_linear_13_116" x1="515.362" y1="502.893" x2="804.328" y2="741.045" gradientUnits="userSpaceOnUse">
<stop stop-color="white"/>
<stop offset="1" stop-color="#BCBEC0"/>
</linearGradient>
<clipPath id="clip0_13_116">
<rect width="641.023" height="648.448" fill="white" transform="translate(380.001 455.33) rotate(101.82)"/>
</clipPath>
<clipPath id="clip1_13_116">
<rect width="385.323" height="389.786" fill="white" transform="translate(303.435) rotate(64.3522)"/>
</clipPath>
<clipPath id="clip2_13_116">
<rect width="518.983" height="524.994" fill="white" transform="translate(859.513 310.677) rotate(90)"/>
</clipPath>
</defs>
</svg>
