<?xml version="1.0" encoding="UTF-8"?>
<svg id="Layer_2" data-name="Layer 2" xmlns="http://www.w3.org/2000/svg" viewBox="0 0 302.46 173.06">
  <defs>
    <style>
      .cls-1 {
        stroke: #939598;
      }

      .cls-1, .cls-2 {
        fill: none;
        stroke-miterlimit: 10;
        stroke-width: 4px;
      }

      .cls-2 {
        stroke: #a7a9ac;
      }

      .cls-3 {
        fill: #6d6e71;
      }

      .cls-4 {
        fill: #808285;
      }

      .cls-5 {
        fill: #231f20;
      }

      .cls-6 {
        fill: #58595b;
      }

      .cls-7 {
        fill: #414042;
      }
    </style>
  </defs>
  <g id="Layer_1-2" data-name="Layer 1">
    <g>
      <g>
        <g>
          <path class="cls-7" d="M77.82,127.6c0,1.04-.18,1.96-.53,2.78s-.83,1.55-1.44,2.18c-.61,.63-1.31,1.18-2.11,1.63-.8,.45-1.66,.82-2.56,1.11s-1.84,.51-2.8,.64c-.96,.14-1.89,.21-2.81,.21-1.99,0-3.82-.09-5.49-.26s-3.31-.46-4.91-.85v-4.69c1.72,.49,3.43,.86,5.13,1.11,1.7,.25,3.39,.38,5.07,.38,2.44,0,4.25-.33,5.42-1,1.17-.66,1.76-1.61,1.76-2.84,0-.53-.09-1-.28-1.42-.19-.42-.52-.82-1.01-1.2-.49-.38-1.25-.78-2.27-1.19s-2.43-.88-4.2-1.41c-1.33-.39-2.55-.83-3.68-1.33-1.12-.5-2.09-1.09-2.92-1.77-.82-.68-1.46-1.48-1.93-2.4-.47-.92-.7-2-.7-3.25,0-.82,.19-1.72,.57-2.7,.38-.98,1.03-1.88,1.95-2.72,.92-.84,2.16-1.54,3.72-2.09,1.56-.56,3.52-.83,5.86-.83,1.15,0,2.43,.06,3.84,.19,1.41,.13,2.87,.35,4.39,.66v4.54c-1.6-.39-3.12-.68-4.56-.86-1.44-.19-2.68-.28-3.74-.28-1.27,0-2.34,.1-3.21,.29-.87,.2-1.57,.46-2.11,.81-.54,.34-.92,.74-1.16,1.2-.23,.46-.35,.95-.35,1.48s.1,1.01,.31,1.44c.21,.43,.59,.85,1.14,1.25,.56,.4,1.33,.8,2.33,1.2,1,.4,2.29,.83,3.9,1.3,1.74,.51,3.2,1.04,4.39,1.6,1.19,.56,2.16,1.18,2.9,1.86,.74,.68,1.27,1.46,1.6,2.31,.32,.86,.48,1.84,.48,2.93Z"/>
          <path class="cls-7" d="M105.98,135.63h-7l-13.71-15.76v15.76h-5.1v-41.4h5.1v25.43l13.21-13.45h6.74l-13.8,13.56,14.56,15.85Z"/>
          <path class="cls-7" d="M108.53,110.43h-8.7v-4.22h13.86v25.17h8.76v4.25h-23.58v-4.25h9.67v-20.95Zm1.79-16.55c.57,0,1.09,.1,1.58,.31,.49,.21,.91,.49,1.27,.86,.36,.37,.64,.8,.85,1.27,.21,.48,.31,1,.31,1.57s-.1,1.06-.31,1.55c-.21,.49-.49,.92-.85,1.29-.36,.37-.79,.66-1.27,.86-.49,.21-1.02,.31-1.58,.31s-1.09-.1-1.58-.31c-.49-.21-.91-.49-1.27-.86-.36-.37-.64-.8-.85-1.29-.21-.49-.31-1.01-.31-1.55s.1-1.09,.31-1.57c.21-.48,.49-.9,.85-1.27,.36-.37,.79-.66,1.27-.86,.49-.21,1.02-.31,1.58-.31Z"/>
          <path class="cls-6" d="M173.76,127.6c0,1.04-.18,1.96-.53,2.78s-.83,1.55-1.44,2.18c-.61,.63-1.31,1.18-2.11,1.63-.8,.45-1.66,.82-2.56,1.11s-1.84,.51-2.8,.64c-.96,.14-1.89,.21-2.81,.21-1.99,0-3.82-.09-5.49-.26s-3.31-.46-4.91-.85v-4.69c1.72,.49,3.43,.86,5.13,1.11,1.7,.25,3.39,.38,5.07,.38,2.44,0,4.25-.33,5.42-1,1.17-.66,1.76-1.61,1.76-2.84,0-.53-.09-1-.28-1.42-.19-.42-.52-.82-1.01-1.2s-1.25-.78-2.27-1.19-2.43-.88-4.2-1.41c-1.33-.39-2.55-.83-3.68-1.33s-2.09-1.09-2.92-1.77c-.82-.68-1.46-1.48-1.93-2.4-.47-.92-.7-2-.7-3.25,0-.82,.19-1.72,.57-2.7,.38-.98,1.03-1.88,1.95-2.72,.92-.84,2.16-1.54,3.72-2.09s3.52-.83,5.86-.83c1.15,0,2.43,.06,3.84,.19,1.41,.13,2.87,.35,4.39,.66v4.54c-1.6-.39-3.12-.68-4.56-.86-1.44-.19-2.68-.28-3.74-.28-1.27,0-2.34,.1-3.21,.29-.87,.2-1.57,.46-2.11,.81-.54,.34-.92,.74-1.16,1.2-.23,.46-.35,.95-.35,1.48s.1,1.01,.31,1.44c.21,.43,.59,.85,1.14,1.25,.56,.4,1.33,.8,2.33,1.2,1,.4,2.29,.83,3.9,1.3,1.74,.51,3.2,1.04,4.39,1.6s2.16,1.18,2.9,1.86c.74,.68,1.27,1.46,1.6,2.31,.32,.86,.48,1.84,.48,2.93Z"/>
          <path class="cls-6" d="M195.36,135.63l-.12-3.96c-1.6,1.58-3.23,2.72-4.88,3.43s-3.38,1.05-5.2,1.05c-1.68,0-3.12-.22-4.31-.64s-2.17-1.02-2.94-1.77c-.77-.75-1.34-1.64-1.7-2.65-.36-1.02-.54-2.12-.54-3.31,0-2.95,1.1-5.26,3.3-6.93s5.44-2.5,9.74-2.5h6.09v-2.58c0-1.74-.56-3.13-1.67-4.17-1.11-1.04-2.81-1.57-5.1-1.57-1.66,0-3.3,.19-4.91,.56-1.61,.37-3.28,.9-5,1.58v-4.6c.64-.23,1.36-.46,2.15-.69,.79-.22,1.63-.42,2.5-.6s1.8-.32,2.75-.42c.96-.11,1.92-.16,2.9-.16,1.78,0,3.38,.2,4.8,.59,1.43,.39,2.63,.99,3.62,1.79,.99,.8,1.74,1.81,2.27,3.02,.53,1.21,.79,2.64,.79,4.28v20.27h-4.57Zm-.56-13.39h-6.47c-1.27,0-2.36,.13-3.28,.38-.92,.25-1.67,.62-2.26,1.08s-1.02,1.03-1.3,1.68c-.28,.65-.42,1.39-.42,2.21,0,.57,.09,1.11,.26,1.63,.18,.52,.46,.98,.85,1.38,.39,.4,.9,.72,1.52,.95s1.39,.35,2.29,.35c1.17,0,2.51-.36,4.03-1.07,1.51-.71,3.11-1.84,4.79-3.38v-5.21Z"/>
          <path class="cls-6" d="M226.55,98.98c-2.68-.57-4.98-.85-6.91-.85-4.59,0-6.88,2.4-6.88,7.21v5.16h12.89v4.25h-12.89v20.89h-5.19v-20.89h-9.46v-4.25h9.46v-4.86c0-7.83,4.08-11.75,12.25-11.75,2.03,0,4.28,.23,6.74,.7v4.39Z"/>
          <path class="cls-6" d="M247.28,119.37c0,.72,0,1.33-.03,1.82-.02,.49-.05,.95-.09,1.38h-20.65c0,3.01,.84,5.32,2.52,6.93s4.1,2.42,7.27,2.42c.86,0,1.72-.03,2.58-.1,.86-.07,1.69-.16,2.49-.28s1.57-.25,2.3-.4,1.41-.31,2.04-.48v4.19c-1.39,.39-2.95,.71-4.7,.95s-3.56,.37-5.43,.37c-2.52,0-4.69-.34-6.5-1.03s-3.31-1.67-4.47-2.97c-1.16-1.3-2.02-2.89-2.58-4.78-.56-1.88-.83-4.02-.83-6.4,0-2.07,.3-4.03,.89-5.87s1.46-3.47,2.61-4.86c1.14-1.4,2.54-2.5,4.2-3.33s3.54-1.23,5.65-1.23,3.87,.32,5.45,.97,2.92,1.56,4,2.74c1.08,1.18,1.9,2.62,2.46,4.31,.56,1.69,.83,3.58,.83,5.67Zm-5.3-.73c.06-1.31-.07-2.5-.38-3.59s-.8-2.02-1.45-2.8c-.65-.78-1.47-1.39-2.45-1.83s-2.11-.66-3.4-.66c-1.11,0-2.13,.22-3.05,.64-.92,.43-1.71,1.04-2.37,1.82-.66,.78-1.2,1.72-1.61,2.81-.41,1.09-.66,2.3-.76,3.6h15.47Z"/>
          <polygon class="cls-7" points="125.52 130.58 130.67 130.58 130.67 94.23 116.82 94.23 116.82 98.42 125.52 98.42 125.52 130.58"/>
          <polygon class="cls-7" points="85.27 129.37 80.16 129.37 80.16 146.35 70.59 146.35 70.59 150.6 93.93 150.6 93.93 146.35 85.27 146.35 85.27 129.37"/>
          <polygon class="cls-7" points="130.67 129.38 125.52 129.38 125.52 146.36 115.85 146.36 115.85 150.6 139.43 150.6 139.43 146.36 130.67 146.36 130.67 129.38"/>
          <polygon class="cls-7" points="147.66 129.38 142.5 129.38 142.5 146.36 132.84 146.36 132.84 150.6 156.42 150.6 156.42 146.36 147.66 146.36 147.66 129.38"/>
          <polygon class="cls-6" points="212.74 129.38 207.56 129.38 207.56 146.36 197.87 146.36 197.87 150.6 221.52 150.6 221.52 146.36 212.74 146.36 212.74 129.38"/>
          <polygon class="cls-7" points="142.5 130.58 147.66 130.58 147.66 94.23 133.8 94.23 133.8 98.42 142.5 98.42 142.5 130.58"/>
        </g>
        <g>
          <circle class="cls-2" cx="266.31" cy="121.91" r="7.53"/>
          <rect class="cls-3" x="281.13" y="119.72" width="21.33" height="4.38"/>
          <circle class="cls-1" cx="36.15" cy="121.91" r="7.53"/>
          <rect class="cls-4" y="119.72" width="21.33" height="4.38" transform="translate(21.33 243.82) rotate(180)"/>
        </g>
      </g>
      <g>
        <path class="cls-5" d="M84.77,172.24c-.78,.49-1.84,.71-3.19,.66h-5.68v-.39c.73,.05,1.17-.1,1.32-.47v-10.04c-.1-.41-.52-.62-1.25-.62v-.39h9.58l.08,3.66h-.31c-.26-1.92-1.09-3.01-2.49-3.27h-3.27c-.83-.1-1.19,.23-1.09,1.01v4.13h3.35c1.82,.05,3.02,.45,3.62,1.21,.6,.75,.83,1.57,.7,2.45-.13,.88-.58,1.57-1.36,2.06Zm-4.05-5.33h-2.26v5.61h2.34c1.56,.05,2.61-.21,3.15-.78,.54-.57,.79-1.3,.74-2.18-.05-.88-.42-1.54-1.09-1.99-.68-.44-1.63-.66-2.88-.66Z"/>
        <path class="cls-5" d="M91.28,172.67h.97v.39h-3.5v-.39c.83,.1,1.4-.26,1.71-1.09l4.13-10.67,4.44,10.2c.36,.88,.65,1.36,.86,1.44,.21,.08,.52,.12,.93,.12v.39h-3.81v-.39c.21,0,.44-.01,.7-.04,.26-.03,.39-.12,.39-.27s-.08-.39-.23-.7l-1.09-2.72h-4.75l-1.09,2.72c-.1,.21-.16,.44-.16,.7,0,.21,.17,.31,.51,.31Zm3.08-9.81l-2.18,5.61h4.44l-2.26-5.61Z"/>
        <path class="cls-5" d="M110.29,167.38c-.81-.41-2.04-.6-3.7-.54v-.31c1.87,.05,3.1-.16,3.7-.62,.6-.47,.9-1.08,.9-1.83s-.23-1.39-.7-1.91c-.47-.52-1.06-.77-1.79-.74-.73,.03-1.38,.26-1.95,.7-.57,.44-1.09,1.47-1.56,3.08h-.23v-4.2h.31c.1,.83,.28,1.25,.54,1.25,.05,0,.13-.05,.23-.16,.36-.36,.83-.65,1.4-.86,.57-.21,1.06-.31,1.48-.31,.31,0,.7,.05,1.17,.16,.47,.1,.97,.39,1.52,.86s.83,1.1,.86,1.91c.03,.81-.16,1.41-.54,1.83-.39,.42-1.08,.75-2.06,1.01,1.09,.26,1.87,.62,2.34,1.09s.7,1.04,.7,1.71-.21,1.28-.62,1.83c-.42,.54-1.04,.96-1.87,1.25-.83,.29-1.61,.4-2.34,.35-.73-.05-1.39-.22-1.99-.51-.6-.28-1-.6-1.21-.93-.21-.34-.32-.71-.35-1.13-.03-.41,.18-.67,.62-.78,.44-.1,.73-.01,.86,.27,.13,.29,.19,.45,.19,.51,0,.21-.13,.39-.39,.54-.16,.1-.23,.21-.23,.31,0,.21,.23,.47,.7,.78s1.17,.47,2.1,.47,1.71-.28,2.34-.86c.62-.57,.91-1.31,.86-2.22-.05-.91-.48-1.57-1.28-1.99Z"/>
        <path class="cls-5" d="M119.03,172.67h.97v.39h-3.5v-.39c.83,.1,1.4-.26,1.71-1.09l4.13-10.67,4.44,10.2c.36,.88,.65,1.36,.86,1.44,.21,.08,.52,.12,.93,.12v.39h-3.81v-.39c.21,0,.44-.01,.7-.04,.26-.03,.39-.12,.39-.27s-.08-.39-.23-.7l-1.09-2.72h-4.75l-1.09,2.72c-.1,.21-.16,.44-.16,.7,0,.21,.17,.31,.51,.31Zm3.08-9.81l-2.18,5.61h4.44l-2.26-5.61Z"/>
        <path class="cls-5" d="M143.64,167.38c-.8-.41-2.04-.6-3.7-.54v-.31c1.87,.05,3.1-.16,3.7-.62,.6-.47,.9-1.08,.9-1.83s-.23-1.39-.7-1.91c-.47-.52-1.06-.77-1.79-.74-.73,.03-1.38,.26-1.95,.7-.57,.44-1.09,1.47-1.56,3.08h-.23v-4.2h.31c.1,.83,.28,1.25,.54,1.25,.05,0,.13-.05,.23-.16,.36-.36,.83-.65,1.4-.86,.57-.21,1.06-.31,1.48-.31,.31,0,.7,.05,1.17,.16,.47,.1,.97,.39,1.52,.86s.83,1.1,.86,1.91c.03,.81-.16,1.41-.54,1.83-.39,.42-1.08,.75-2.06,1.01,1.09,.26,1.87,.62,2.34,1.09s.7,1.04,.7,1.71-.21,1.28-.62,1.83c-.42,.54-1.04,.96-1.87,1.25-.83,.29-1.61,.4-2.34,.35-.73-.05-1.39-.22-1.99-.51-.6-.28-1-.6-1.21-.93-.21-.34-.32-.71-.35-1.13-.03-.41,.18-.67,.62-.78,.44-.1,.73-.01,.86,.27,.13,.29,.19,.45,.19,.51,0,.21-.13,.39-.39,.54-.16,.1-.23,.21-.23,.31,0,.21,.23,.47,.7,.78s1.17,.47,2.1,.47,1.71-.28,2.34-.86c.62-.57,.91-1.31,.86-2.22-.05-.91-.48-1.57-1.28-1.99Z"/>
        <path class="cls-5" d="M152.86,171.81v-9.73c-.1-.47-.7-.7-1.79-.7v-.39h4.9v.39c-1.09,0-1.66,.21-1.71,.62v4.44h6.7v-4.28c-.1-.52-.7-.78-1.79-.78v-.39h4.98v.39c-1.14,0-1.77,.23-1.87,.7v9.73c.1,.47,.73,.7,1.87,.7v.39h-4.98v-.39c1.09,0,1.69-.26,1.79-.78v-4.9h-6.7v5.06c.05,.42,.73,.62,2.02,.62v.39h-5.22v-.39c1.09,0,1.69-.23,1.79-.7Z"/>
        <path class="cls-5" d="M169.63,172.67h.97v.39h-3.5v-.39c.83,.1,1.4-.26,1.71-1.09l4.13-10.67,4.44,10.2c.36,.88,.65,1.36,.86,1.44,.21,.08,.52,.12,.93,.12v.39h-3.81v-.39c.21,0,.44-.01,.7-.04,.26-.03,.39-.12,.39-.27s-.08-.39-.23-.7l-1.09-2.72h-4.75l-1.09,2.72c-.1,.21-.16,.44-.16,.7,0,.21,.17,.31,.51,.31Zm3.08-9.81l-2.18,5.61h4.44l-2.26-5.61Z"/>
        <path class="cls-5" d="M183.99,171.81v-9.73c-.1-.47-.7-.7-1.79-.7v-.39h4.9v.39c-1.09,0-1.66,.21-1.71,.62v4.44h6.7v-4.28c-.1-.52-.7-.78-1.79-.78v-.39h4.98v.39c-1.14,0-1.77,.23-1.87,.7v9.73c.1,.47,.73,.7,1.87,.7v.39h-4.98v-.39c1.09,0,1.69-.26,1.79-.78v-4.9h-6.7v5.06c.05,.42,.73,.62,2.02,.62v.39h-5.22v-.39c1.09,0,1.69-.23,1.79-.7Z"/>
        <path class="cls-5" d="M202.67,160.99v.39c-1.14,0-1.74,.26-1.79,.78v8.64l6.93-8.72v-.39c-.21-.21-.81-.31-1.79-.31v-.39h4.9v.39c-1.14,0-1.74,.21-1.79,.62v9.65c.05,.62,.65,.93,1.79,.93v.39h-4.9v-.39c1.04,0,1.63-.31,1.79-.93v-8.72l-6.93,8.56v.47c.1,.42,.7,.62,1.79,.62v.39h-4.98v-.39c1.09,0,1.69-.23,1.79-.7v-9.73c-.1-.52-.7-.78-1.79-.78v-.39h4.98Z"/>
        <path class="cls-5" d="M218.31,160.99v.39c-1.14,0-1.74,.26-1.79,.78v8.64l6.93-8.72v-.39c-.21-.21-.81-.31-1.79-.31v-.39h4.9v.39c-1.14,0-1.74,.21-1.79,.62v9.65c.05,.62,.65,.93,1.79,.93v.39h-4.9v-.39c1.04,0,1.63-.31,1.79-.93v-8.72l-6.93,8.56v.47c.1,.42,.7,.62,1.79,.62v.39h-4.98v-.39c1.09,0,1.69-.23,1.79-.7v-9.73c-.1-.52-.7-.78-1.79-.78v-.39h4.98Zm2.3-1.79c.08-.26,.3-.4,.66-.43,.36-.03,.58,.07,.66,.27,.08,.21,.12,.36,.12,.47,0,.26-.17,.54-.51,.86-.34,.31-.84,.49-1.52,.54-.68,.05-1.22-.08-1.63-.39-.42-.31-.64-.65-.66-1.01-.03-.36,.12-.6,.43-.7,.31-.1,.57-.06,.78,.12,.21,.18,.28,.38,.23,.58-.05,.21-.13,.36-.23,.47-.16,.1-.09,.21,.19,.31,.28,.1,.51,.16,.66,.16s.4-.06,.74-.19c.34-.13,.43-.27,.27-.43-.21-.16-.27-.36-.19-.62Z"/>
      </g>
      <g>
        <polygon class="cls-6" points="183 44.66 183 71.02 119.55 71.02 119.55 41.73 106.68 41.73 106.68 86.64 119.55 86.64 152.19 86.64 195.78 86.64 195.78 44.66 183 44.66"/>
        <polygon class="cls-7" points="195.78 60.49 195.78 40.12 154.96 0 106.68 41.74 106.68 62.8 154.69 18.69 195.78 60.49"/>
      </g>
    </g>
  </g>
</svg>