<?xml version="1.0" encoding="UTF-8"?>
<svg id="Layer_2" data-name="Layer 2" xmlns="http://www.w3.org/2000/svg" viewBox="0 0 302.46 56.73">
  <defs>
    <style>
      .cls-1 {
        stroke: #939598;
      }

      .cls-1, .cls-2 {
        fill: none;
        stroke-miterlimit: 10;
        stroke-width: 4px;
      }

      .cls-2 {
        stroke: #a7a9ac;
      }

      .cls-3 {
        fill: #6d6e71;
      }

      .cls-4 {
        fill: #808285;
      }

      .cls-5 {
        fill: #58595b;
      }

      .cls-6 {
        fill: #414042;
      }
    </style>
  </defs>
  <g id="Layer_1-2" data-name="Layer 1">
    <g>
      <g>
        <path class="cls-6" d="M77.82,33.72c0,1.04-.18,1.96-.53,2.78s-.83,1.55-1.44,2.18c-.61,.63-1.31,1.18-2.11,1.63-.8,.45-1.66,.82-2.56,1.11s-1.84,.51-2.8,.64c-.96,.14-1.89,.21-2.81,.21-1.99,0-3.82-.09-5.49-.26s-3.31-.46-4.91-.85v-4.69c1.72,.49,3.43,.86,5.13,1.11,1.7,.25,3.39,.38,5.07,.38,2.44,0,4.25-.33,5.42-1,1.17-.66,1.76-1.61,1.76-2.84,0-.53-.09-1-.28-1.42-.19-.42-.52-.82-1.01-1.2-.49-.38-1.25-.78-2.27-1.19s-2.43-.88-4.2-1.41c-1.33-.39-2.55-.83-3.68-1.33-1.12-.5-2.09-1.09-2.92-1.77-.82-.68-1.46-1.48-1.93-2.4-.47-.92-.7-2-.7-3.25,0-.82,.19-1.72,.57-2.7,.38-.98,1.03-1.88,1.95-2.72,.92-.84,2.16-1.54,3.72-2.09,1.56-.56,3.52-.83,5.86-.83,1.15,0,2.43,.06,3.84,.19,1.41,.13,2.87,.35,4.39,.66v4.54c-1.6-.39-3.12-.68-4.56-.86-1.44-.19-2.68-.28-3.74-.28-1.27,0-2.34,.1-3.21,.29-.87,.2-1.57,.46-2.11,.81-.54,.34-.92,.74-1.16,1.2-.23,.46-.35,.95-.35,1.48s.1,1.01,.31,1.44c.21,.43,.59,.85,1.14,1.25,.56,.4,1.33,.8,2.33,1.2,1,.4,2.29,.83,3.9,1.3,1.74,.51,3.2,1.04,4.39,1.6,1.19,.56,2.16,1.18,2.9,1.86,.74,.68,1.27,1.46,1.6,2.31,.32,.86,.48,1.84,.48,2.93Z"/>
        <path class="cls-6" d="M105.98,41.75h-7l-13.71-15.76v15.76h-5.1V.35h5.1V25.78l13.21-13.45h6.74l-13.8,13.56,14.56,15.85Z"/>
        <path class="cls-6" d="M108.53,16.55h-8.7v-4.22h13.86v25.17h8.76v4.25h-23.58v-4.25h9.67V16.55Zm1.79-16.55c.57,0,1.09,.1,1.58,.31,.49,.21,.91,.49,1.27,.86,.36,.37,.64,.8,.85,1.27,.21,.48,.31,1,.31,1.57s-.1,1.06-.31,1.55c-.21,.49-.49,.92-.85,1.29-.36,.37-.79,.66-1.27,.86-.49,.21-1.02,.31-1.58,.31s-1.09-.1-1.58-.31c-.49-.21-.91-.49-1.27-.86-.36-.37-.64-.8-.85-1.29-.21-.49-.31-1.01-.31-1.55s.1-1.09,.31-1.57c.21-.48,.49-.9,.85-1.27,.36-.37,.79-.66,1.27-.86,.49-.21,1.02-.31,1.58-.31Z"/>
        <path class="cls-5" d="M173.76,33.72c0,1.04-.18,1.96-.53,2.78s-.83,1.55-1.44,2.18c-.61,.63-1.31,1.18-2.11,1.63-.8,.45-1.66,.82-2.56,1.11s-1.84,.51-2.8,.64c-.96,.14-1.89,.21-2.81,.21-1.99,0-3.82-.09-5.49-.26s-3.31-.46-4.91-.85v-4.69c1.72,.49,3.43,.86,5.13,1.11,1.7,.25,3.39,.38,5.07,.38,2.44,0,4.25-.33,5.42-1,1.17-.66,1.76-1.61,1.76-2.84,0-.53-.09-1-.28-1.42-.19-.42-.52-.82-1.01-1.2s-1.25-.78-2.27-1.19-2.43-.88-4.2-1.41c-1.33-.39-2.55-.83-3.68-1.33s-2.09-1.09-2.92-1.77c-.82-.68-1.46-1.48-1.93-2.4-.47-.92-.7-2-.7-3.25,0-.82,.19-1.72,.57-2.7,.38-.98,1.03-1.88,1.95-2.72,.92-.84,2.16-1.54,3.72-2.09s3.52-.83,5.86-.83c1.15,0,2.43,.06,3.84,.19,1.41,.13,2.87,.35,4.39,.66v4.54c-1.6-.39-3.12-.68-4.56-.86-1.44-.19-2.68-.28-3.74-.28-1.27,0-2.34,.1-3.21,.29-.87,.2-1.57,.46-2.11,.81-.54,.34-.92,.74-1.16,1.2-.23,.46-.35,.95-.35,1.48s.1,1.01,.31,1.44c.21,.43,.59,.85,1.14,1.25,.56,.4,1.33,.8,2.33,1.2,1,.4,2.29,.83,3.9,1.3,1.74,.51,3.2,1.04,4.39,1.6s2.16,1.18,2.9,1.86c.74,.68,1.27,1.46,1.6,2.31,.32,.86,.48,1.84,.48,2.93Z"/>
        <path class="cls-5" d="M195.36,41.75l-.12-3.96c-1.6,1.58-3.23,2.72-4.88,3.43s-3.38,1.05-5.2,1.05c-1.68,0-3.12-.22-4.31-.64s-2.17-1.02-2.94-1.77c-.77-.75-1.34-1.64-1.7-2.65-.36-1.02-.54-2.12-.54-3.31,0-2.95,1.1-5.26,3.3-6.93s5.44-2.5,9.74-2.5h6.09v-2.58c0-1.74-.56-3.13-1.67-4.17-1.11-1.04-2.81-1.57-5.1-1.57-1.66,0-3.3,.19-4.91,.56-1.61,.37-3.28,.9-5,1.58v-4.6c.64-.23,1.36-.46,2.15-.69,.79-.22,1.63-.42,2.5-.6s1.8-.32,2.75-.42c.96-.11,1.92-.16,2.9-.16,1.78,0,3.38,.2,4.8,.59,1.43,.39,2.63,.99,3.62,1.79,.99,.8,1.74,1.81,2.27,3.02,.53,1.21,.79,2.64,.79,4.28v20.27h-4.57Zm-.56-13.39h-6.47c-1.27,0-2.36,.13-3.28,.38-.92,.25-1.67,.62-2.26,1.08s-1.02,1.03-1.3,1.68c-.28,.65-.42,1.39-.42,2.21,0,.57,.09,1.11,.26,1.63,.18,.52,.46,.98,.85,1.38,.39,.4,.9,.72,1.52,.95s1.39,.35,2.29,.35c1.17,0,2.51-.36,4.03-1.07,1.51-.71,3.11-1.84,4.79-3.38v-5.21Z"/>
        <path class="cls-5" d="M226.55,5.1c-2.68-.57-4.98-.85-6.91-.85-4.59,0-6.88,2.4-6.88,7.21v5.16h12.89v4.25h-12.89v20.89h-5.19V20.86h-9.46v-4.25h9.46v-4.86c0-7.83,4.08-11.75,12.25-11.75,2.03,0,4.28,.23,6.74,.7V5.1Z"/>
        <path class="cls-5" d="M247.28,25.49c0,.72,0,1.33-.03,1.82-.02,.49-.05,.95-.09,1.38h-20.65c0,3.01,.84,5.32,2.52,6.93s4.1,2.42,7.27,2.42c.86,0,1.72-.03,2.58-.1,.86-.07,1.69-.16,2.49-.28s1.57-.25,2.3-.4,1.41-.31,2.04-.48v4.19c-1.39,.39-2.95,.71-4.7,.95s-3.56,.37-5.43,.37c-2.52,0-4.69-.34-6.5-1.03s-3.31-1.67-4.47-2.97c-1.16-1.3-2.02-2.89-2.58-4.78-.56-1.88-.83-4.02-.83-6.4,0-2.07,.3-4.03,.89-5.87s1.46-3.47,2.61-4.86c1.14-1.4,2.54-2.5,4.2-3.33s3.54-1.23,5.65-1.23,3.87,.32,5.45,.97,2.92,1.56,4,2.74c1.08,1.18,1.9,2.62,2.46,4.31,.56,1.69,.83,3.58,.83,5.67Zm-5.3-.73c.06-1.31-.07-2.5-.38-3.59s-.8-2.02-1.45-2.8c-.65-.78-1.47-1.39-2.45-1.83s-2.11-.66-3.4-.66c-1.11,0-2.13,.22-3.05,.64-.92,.43-1.71,1.04-2.37,1.82-.66,.78-1.2,1.72-1.61,2.81-.41,1.09-.66,2.3-.76,3.6h15.47Z"/>
        <polygon class="cls-6" points="125.52 36.7 130.67 36.7 130.67 .35 116.82 .35 116.82 4.54 125.52 4.54 125.52 36.7"/>
        <polygon class="cls-6" points="85.27 35.5 80.16 35.5 80.16 52.47 70.59 52.47 70.59 56.72 93.93 56.72 93.93 52.47 85.27 52.47 85.27 35.5"/>
        <polygon class="cls-6" points="130.67 35.5 125.52 35.5 125.52 52.48 115.85 52.48 115.85 56.73 139.43 56.73 139.43 52.48 130.67 52.48 130.67 35.5"/>
        <polygon class="cls-6" points="147.66 35.5 142.5 35.5 142.5 52.48 132.84 52.48 132.84 56.73 156.42 56.73 156.42 52.48 147.66 52.48 147.66 35.5"/>
        <polygon class="cls-5" points="212.74 35.5 207.56 35.5 207.56 52.48 197.87 52.48 197.87 56.73 221.52 56.73 221.52 52.48 212.74 52.48 212.74 35.5"/>
        <polygon class="cls-6" points="142.5 36.7 147.66 36.7 147.66 .35 133.8 .35 133.8 4.54 142.5 4.54 142.5 36.7"/>
      </g>
      <g>
        <circle class="cls-2" cx="266.31" cy="28.03" r="7.53"/>
        <rect class="cls-3" x="281.13" y="25.84" width="21.33" height="4.38"/>
        <circle class="cls-1" cx="36.15" cy="28.03" r="7.53"/>
        <rect class="cls-4" y="25.84" width="21.33" height="4.38" transform="translate(21.33 56.06) rotate(180)"/>
      </g>
    </g>
  </g>
</svg>