<svg width="252" height="252" viewBox="0 0 252 252" fill="none" xmlns="http://www.w3.org/2000/svg">
<path d="M126 226C181.264 226 226 180.969 226 125.5C226 70.0308 181.264 25 126 25C70.7362 25 26 70.0308 26 125.5C26 180.969 70.7362 226 126 226Z" stroke="#716666" stroke-width="14"/>
<path fill-rule="evenodd" clip-rule="evenodd" d="M163 124C174.598 124 184 114.598 184 103C184 96.5906 181.129 90.8519 176.602 87L142.38 107C144.248 116.685 152.77 124 163 124Z" fill="#716666"/>
<path fill-rule="evenodd" clip-rule="evenodd" d="M89 124C77.402 124 68 114.598 68 103C68 96.5906 70.8714 90.8519 75.3979 87L109.62 107C107.752 116.685 99.2302 124 89 124Z" fill="#716666"/>
<path d="M78 157C115.851 136.837 136.811 137.359 174 157" stroke="#716666" stroke-width="15" stroke-linecap="round"/>
</svg>
