<svg width="252" height="252" viewBox="0 0 252 252" fill="none" xmlns="http://www.w3.org/2000/svg">
<path d="M126 226C181.264 226 226 180.969 226 125.5C226 70.0308 181.264 25 126 25C70.7362 25 26 70.0308 26 125.5C26 180.969 70.7362 226 126 226Z" stroke="#716666" stroke-width="14"/>
<path fill-rule="evenodd" clip-rule="evenodd" d="M106.745 114.235C108.806 110.986 110 107.133 110 103C110 91.402 100.598 82 89 82C77.402 82 68 91.402 68 103C68 110.773 72.2231 117.56 78.5 121.191C88.7997 117.543 95.0591 116.126 106.745 114.235Z" fill="#716666"/>
<path fill-rule="evenodd" clip-rule="evenodd" d="M145.255 114.235C143.194 110.986 142 107.133 142 103C142 91.402 151.402 82 163 82C174.598 82 184 91.402 184 103C184 110.773 179.777 117.56 173.5 121.191C163.2 117.543 156.941 116.126 145.255 114.235Z" fill="#716666"/>
<path d="M78 157C115.851 201.575 136.811 200.421 174 157" stroke="#716666" stroke-width="15" stroke-linecap="round"/>
<path d="M78 157.073C116.342 145.048 137.297 144.854 174 157.073" stroke="#716666" stroke-width="15" stroke-linecap="round"/>
</svg>
