<svg width="252" height="252" viewBox="0 0 252 252" fill="none" xmlns="http://www.w3.org/2000/svg">
<path d="M193.911 31.9198L126 99.8309L58.0889 31.9198C50.8625 24.6934 39.1462 24.6934 31.9198 31.9198C24.6934 39.1462 24.6934 50.8625 31.9198 58.0889L99.8309 126L31.9198 193.911C24.6934 201.137 24.6934 212.854 31.9198 220.08C39.1462 227.307 50.8625 227.307 58.0889 220.08L126 152.169L193.911 220.08C201.137 227.307 212.854 227.307 220.08 220.08C227.307 212.854 227.307 201.138 220.08 193.911L152.169 126L220.08 58.0889C227.307 50.8625 227.307 39.1462 220.08 31.9198C212.854 24.6934 201.137 24.6934 193.911 31.9198Z" stroke="#716666" stroke-width="15"/>
</svg>
