<svg width="252" height="252" viewBox="0 0 252 252" fill="none" xmlns="http://www.w3.org/2000/svg">
<path d="M108.771 24.7291V108.771H24.7291C15.2137 108.771 7.5 116.485 7.5 126C7.5 135.515 15.2137 143.229 24.7291 143.229H108.771V227.271C108.771 236.786 116.485 244.5 126 244.5C135.515 244.5 143.229 236.786 143.229 227.271V143.229H227.271C236.786 143.229 244.5 135.515 244.5 126C244.5 116.485 236.786 108.771 227.271 108.771H143.229V24.7291C143.229 15.2137 135.515 7.5 126 7.5C116.485 7.5 108.771 15.2137 108.771 24.7291Z" stroke="#716666" stroke-width="15"/>
</svg>
